<svg id="Capa_1" data-name="Capa 1" xmlns="http://www.w3.org/2000/svg" viewBox="0 0 504.56 111.07" width="400" height="100">
  <defs>
    <style>
      .cls-1 {
        fill: white; /* Cambiado a blanco */
      }
    </style>
  </defs>
  <path class="cls-1" d="M192.23,335.68h-29l-37.06-54.43h20.64q15.63,0,16.42-14.32,0-14.53-16.85-14.75H124.79v83.5H99.5V230.6h48.84q20.49,0,31.53,11.05,8.94,9.07,8.94,23.76,0,25.72-22.16,32.77Z" transform="translate(-99.5 -230.6)"/>
  <path class="cls-1" d="M358.32,262.51v76.6H337.43v-76.6h-38.3V241.62h97.49v20.89Z" transform="translate(-99.5 -230.6)"/>
  <path class="cls-1" d="M412.93,318.22h76.59v20.89H392V241.62h97.49v20.89H412.93v17.41h76.59v20.89H412.93Z" transform="translate(-99.5 -230.6)"/>
  <path class="cls-1" d="M527.56,234.56h45.91q30.6,0,30.6,30.6v45.9q0,30.62-30.6,30.61H527.56q-30.6,0-30.6-30.61v-45.9Q497,234.56,527.56,234.56Zm45.91,22.95H527.56q-7.65,0-7.65,7.65v45.9q0,7.65,7.65,7.65h45.91q7.65,0,7.65-7.65v-45.9Q581.12,257.51,573.47,257.51Z" transform="translate(-99.5 -230.6)"/>
  <path class="cls-1" d="M278.24,311.26V241.62h20.89v69.64q0,27.86-27.85,27.85H229.5q-27.85,0-27.86-27.85V241.62h20.89v69.64q0,7,7,7h41.78Q278.24,318.22,278.24,311.26Z" transform="translate(-99.5 -230.6)"/>
</svg>